<svg width="92" height="90" viewBox="0 0 92 90" fill="none" xmlns="http://www.w3.org/2000/svg">
<g clip-path="url(#clip0)">
<path d="M56.2156 43.3151L47.1378 51.9802L8.80341 88.5661C7.79702 89.5289 6.506 90.0103 5.21497 90.0103C3.80196 90.0103 2.38894 89.4367 1.36222 88.2998C-0.660727 86.0669 -0.396422 82.5743 1.93149 80.6692L47.1378 43.8272L52.1189 39.7712L56.2156 43.3151Z" fill="url(#paint0_linear)"/>
<path d="M46.7413 52.4206L37.8058 60.9423L36.9824 52.185L41.872 48.2007L46.7413 52.4206Z" fill="#3A81D6" fill-opacity="0.8"/>
<path d="M91.978 29.9078C91.978 46.4288 78.6815 59.8259 62.2946 59.8259C51.9664 59.8259 42.8682 54.5101 37.5516 46.4391C34.4308 41.7071 32.6111 36.0225 32.6111 29.9078C32.6111 13.3868 45.9077 0 62.2946 0C69.6951 0 76.4552 2.72448 81.6498 7.23114C87.9728 12.7211 91.978 20.8433 91.978 29.9078Z" fill="url(#paint1_linear)"/>
<path d="M62.2946 53.2093C75.0671 53.2093 85.4213 42.7768 85.4213 29.9078C85.4213 17.0387 75.0671 6.60632 62.2946 6.60632C49.5221 6.60632 39.1679 17.0387 39.1679 29.9078C39.1679 42.7768 49.5221 53.2093 62.2946 53.2093Z" fill="white"/>
<path opacity="0.06" d="M91.978 29.9078C91.978 46.4288 78.6815 59.8259 62.2946 59.8259C51.9664 59.8259 42.8682 54.5101 37.5516 46.4391C71.0268 43.6941 79.8505 15.1178 81.66 7.23114C87.9728 12.7211 91.978 20.8433 91.978 29.9078Z" fill="#1A6FB5" fill-opacity="0.5"/>
<path d="M61.7183 29.7917C64.402 29.7917 66.5774 27.5999 66.5774 24.8959C66.5774 22.1919 64.402 20 61.7183 20C59.0346 20 56.8591 22.1919 56.8591 24.8959C56.8591 27.5999 59.0244 29.7917 61.7183 29.7917ZM61.7183 32.2397C58.4755 32.2397 52 33.8785 52 37.1355V38.3646C52 39.0406 52.5489 39.5937 53.2199 39.5937H70.237C70.9079 39.5937 71.4569 39.0406 71.4569 38.3646V37.1355C71.4366 33.8887 64.9611 32.2397 61.7183 32.2397Z" fill="url(#paint2_linear)"/>
</g>
<defs>
<linearGradient id="paint0_linear" x1="5.67475" y1="84.3265" x2="53.9244" y2="40.7922" gradientUnits="userSpaceOnUse">
<stop stop-color="#67C3F3"/>
<stop offset="1" stop-color="#5A98F2"/>
</linearGradient>
<linearGradient id="paint1_linear" x1="50.0173" y1="2.11336" x2="72.7818" y2="52.9053" gradientUnits="userSpaceOnUse">
<stop stop-color="#67C3F3"/>
<stop offset="1" stop-color="#5A98F2"/>
</linearGradient>
<linearGradient id="paint2_linear" x1="54.6923" y1="28.2274" x2="72.3433" y2="36.7718" gradientUnits="userSpaceOnUse">
<stop stop-color="#B0F4FF"/>
<stop offset="0.071077" stop-color="#A6F1FF"/>
<stop offset="0.2937" stop-color="#8BE8FD"/>
<stop offset="0.5209" stop-color="#78E1FD"/>
<stop offset="0.7536" stop-color="#6DDDFC"/>
<stop offset="1" stop-color="#69DCFC"/>
</linearGradient>
<clipPath id="clip0">
<rect width="91.978" height="90" fill="white"/>
</clipPath>
</defs>
</svg>
